<?xml version="1.0"?>
<svg xmlns="http://www.w3.org/2000/svg" height="512px" viewBox="0 0 511.99988 511" width="512px" class=""><g><path d="m332.597656 244.972656 57.875-57.640625 47.609375-6.296875c5.398438-.714844 10.082031-4.046875 12.523438-8.921875l59.648437-119.132812c3.175782-6.328125 1.941406-13.945313-3.066406-18.953125l-28.742188-28.726563c-4.992187-4.988281-12.59375-6.222656-18.917968-3.074219l-119.300782 59.519532c-4.890624 2.4375-8.238281 7.121094-8.949218 12.53125l-6.292969 47.550781-57.867187 57.667969-15.410157-15.410156c-6.664062-6.664063-9.894531-16.175782-8.632812-25.5 4.984375-37.886719-7.644531-75.175782-34.679688-102.320313-27.234375-27.230469-66.25-40.101563-104.277343-34.441406-8.027344 1.144531-14.613282 6.65625-17.1875 14.382812-2.582032 7.742188-.613282 16.125 5.136718 21.875l32.402344 32.398438c4.632812 4.632812 7.179688 10.785156 7.167969 17.316406-.007813 6.480469-2.542969 12.558594-7.167969 17.152344l-19.921875 19.921875c-4.625 4.621094-10.757813 7.167968-17.277344 7.167968-.011719 0-.027343 0-.042969 0-6.480468-.011718-12.5625-2.546874-17.171874-7.1875l-32.492188-32.382812c-5.679688-5.679688-13.964844-7.671875-21.621094-5.203125-7.695312 2.480469-13.289062 8.976563-14.589844 16.960937l-.035156.207032c-5.671875 38.113281 7.199219 77.125 34.457032 104.378906 27.125 27.007812 64.417968 39.636719 102.347656 34.648438 9.289062-1.253907 18.808594 1.980468 25.460937 8.632812l15.3125 15.320312-14.179687 14.128907c-14.191406-11.078125-34.832032-10.089844-47.875 2.945312l-93.441406 93.378907c-30.621094 30.609374-31.214844 80.386718-1.316407 110.972656 14.792969 15.132812 34.578125 23.535156 55.703125 23.660156h.472656c20.953126 0 40.644532-8.15625 55.492188-22.996094l94.066406-94.007812c6.84375-6.839844 10.613282-15.929688 10.613282-25.601563 0-8.472656-2.890626-16.496093-8.207032-22.953125l14.117188-14.0625 161.390625 161.441406c12.101562 12.097657 27.996093 18.144532 43.910156 18.144532 15.960937 0 31.941406-6.085938 44.105469-18.25 24.226562-24.226563 24.285156-63.691406.105468-88.007813zm-147.796875-14.089844c-13.230469-13.226562-32.175781-19.640624-50.632812-17.164062-28.597657 3.761719-56.746094-5.773438-77.207031-26.140625-16.40625-16.410156-25.765626-37.679687-26.890626-60.21875l18.753907 18.6875c10.214843 10.289063 23.835937 15.96875 38.351562 15.992187h.097657c14.527343 0 28.195312-5.664062 38.484374-15.953124l19.890626-19.886719c10.285156-10.21875 15.964843-23.835938 15.992187-38.351563.023437-14.566406-5.640625-28.265625-15.957031-38.578125l-18.675782-18.675781c22.519532 1.132812 43.773438 10.488281 60.152344 26.863281 20.394532 20.480469 29.933594 48.625 26.175782 77.164063-2.5 18.488281 3.914062 37.4375 17.160156 50.679687l15.371094 15.371094-45.71875 45.5625zm21.808594 143.390626-94.066406 94.011718c-9.179688 9.171875-21.347657 14.214844-34.292969 14.214844-.097656 0-.191406 0-.289062 0-13.050782-.078125-25.277344-5.273438-34.425782-14.632812-18.460937-18.882813-17.976562-49.738282 1.074219-68.78125l93.4375-93.378907c1.210937-1.210937 2.804687-1.816406 4.394531-1.816406s3.175782.601563 4.386719 1.804687l7.480469 7.441407 33.613281 33.59375-.050781.050781 18.738281 18.730469c1.582031 1.582031 1.816406 3.425781 1.816406 4.382812s-.234375 2.800781-1.816406 4.378907zm2.566406-48.714844-23.03125-23.015625 163.285157-162.722657c2.546874-2.535156 4.210937-5.894531 4.6875-9.472656l5.953124-44.976562 104.09375-51.929688 14.878907 14.871094-52.035157 103.925781-45.023437 5.953125c-3.550781.46875-6.898437 2.121094-9.425781 4.640625zm263.355469 147.441406c-12.597656 12.597656-33.046875 12.644531-45.585938.105469l-161.347656-161.398438 45.746094-45.5625 161.261719 161.242188c12.523437 12.59375 12.488281 33.054687-.074219 45.613281zm0 0" data-original="#000000" class="active-path" data-old_color="#1c1c1c" fill="#1c1c1c"/><path d="m136.679688 354.628906-69.960938 69.957032c-5.859375 5.855468-5.859375 15.355468 0 21.210937 2.929688 2.929687 6.765625 4.394531 10.609375 4.394531 3.835937 0 7.675781-1.464844 10.605469-4.394531l69.957031-69.957031c5.859375-5.855469 5.859375-15.351563 0-21.210938-5.855469-5.859375-15.355469-5.859375-21.210937 0zm0 0" data-original="#000000" class="active-path" data-old_color="#1c1c1c" fill="#1c1c1c"/><path d="m374.847656 354.582031c-5.882812-5.832031-15.378906-5.789062-21.210937.09375-5.832031 5.886719-5.789063 15.382813.09375 21.214844l85.804687 85.027344c2.925782 2.898437 6.742188 4.347656 10.558594 4.347656 3.859375 0 7.722656-1.484375 10.65625-4.441406 5.832031-5.886719 5.789062-15.382813-.097656-21.214844zm0 0" data-original="#000000" class="active-path" data-old_color="#1c1c1c" fill="#1c1c1c"/></g> </svg>
